<svg width="128" height="128" xmlns="http://www.w3.org/2000/svg" preserveAspectRatio="xMidYMid meet" version="1.0">

 <g>
  <title>Layer 1</title>
  <g id="svg_1" fill="#000000" transform="translate(0 128) scale(0.1 -0.1)">
   <path fill="#999999" id="svg_2" d="m75,1111c-33,-14 -65,-56 -71,-93c-12,-69 6,-85 312,-288c249,-166 290,-190 324,-190c34,0 75,24 325,190c229,152 289,197 302,224c21,45 11,95 -28,132l-30,29l-557,2c-306,1 -566,-2 -577,-6z"/>
   <path fill="#999999" id="svg_3" d="m2,541l3,-311l33,-32l32,-33l570,0l570,0l32,33l33,32l3,311l3,310l-273,-182c-170,-114 -291,-188 -320,-197c-78,-22 -113,-6 -416,197l-273,182l3,-310z"/>
  </g>
 </g>
</svg>